<mxfile host="app.diagrams.net" agent="Mozilla/5.0 (Windows NT 10.0; Win64; x64) AppleWebKit/537.36 (KHTML, like Gecko) Chrome/137.0.0.0 Safari/537.36" version="27.0.9">
  <diagram id="Vh9YzEMfl2htiTe4LeyS" name="PÃ¡gina-1">
    <mxGraphModel dx="1201" dy="701" grid="1" gridSize="10" guides="1" tooltips="1" connect="1" arrows="1" fold="1" page="0" pageScale="1" pageWidth="827" pageHeight="1169" background="none" math="0" shadow="0">
      <root>
        <mxCell id="0" />
        <mxCell id="1" parent="0" />
        <mxCell id="node1" value="&lt;p style=&quot;margin:0px;margin-top:4px;text-align:center;&quot;&gt;&lt;b&gt;Asignatura&lt;/b&gt;&lt;/p&gt;&lt;hr size=&quot;1&quot;&gt;&lt;p style=&quot;margin:0 0 0 4px;line-height:1.6;&quot;&gt;- codigo: String&lt;br&gt;- nombre: String&lt;/p&gt;&lt;hr size=&quot;1&quot;&gt;&lt;p style=&quot;margin:0 0 0 4px;line-height:1.6;&quot;&gt;+ Asignatura(String, String):&lt;/p&gt;&lt;p style=&quot;margin:0 0 0 4px;line-height:1.6;&quot;&gt;+ getCodigo(): String&lt;br&gt;+ setNombre(String): void&lt;br&gt;+ setCodigo(String): void&lt;br&gt;+ getNombre(): String&lt;br&gt;+ toString(): String&lt;/p&gt;" style="verticalAlign=top;align=left;overflow=fill;fontSize=14;fontFamily=Helvetica;html=1;rounded=0;shadow=0;comic=0;labelBackgroundColor=none;strokeWidth=1;" parent="1" vertex="1">
          <mxGeometry x="470.5" y="30" width="213" height="230" as="geometry" />
        </mxCell>
        <mxCell id="node3" value="&lt;p style=&quot;margin:0px;margin-top:4px;text-align:center;&quot;&gt;&lt;b&gt;Calificacion&lt;/b&gt;&lt;/p&gt;&lt;hr size=&quot;1&quot;&gt;&lt;p style=&quot;margin:0 0 0 4px;line-height:1.6;&quot;&gt;- valor: Double&lt;br&gt;- asignatura: Asignatura&lt;/p&gt;&lt;hr size=&quot;1&quot;&gt;&lt;p style=&quot;margin:0 0 0 4px;line-height:1.6;&quot;&gt;+ Calificacion(Asignatura, Double):&lt;/p&gt;&lt;p style=&quot;margin:0 0 0 4px;line-height:1.6;&quot;&gt;+ getAsignatura(): Asignatura&lt;br&gt;+ setAsignatura(Asignatura): void&lt;br&gt;+ setValor(Double): void&lt;br&gt;+ toString(): String&lt;br&gt;+ getValor(): Double&lt;/p&gt;&lt;p style=&quot;margin:0 0 0 4px;line-height:1.6;&quot;&gt;+ toString(): String&lt;/p&gt;" style="verticalAlign=top;align=left;overflow=fill;fontSize=14;fontFamily=Helvetica;html=1;rounded=0;shadow=0;comic=0;labelBackgroundColor=none;strokeWidth=1;" parent="1" vertex="1">
          <mxGeometry x="450" y="400" width="254" height="254" as="geometry" />
        </mxCell>
        <mxCell id="node0" value="&lt;p style=&quot;margin:0px;margin-top:4px;text-align:center;&quot;&gt;&lt;b&gt;Curso&lt;/b&gt;&lt;/p&gt;&lt;hr size=&quot;1&quot;&gt;&lt;p style=&quot;margin:0 0 0 4px;line-height:1.6;&quot;&gt;- nombre: String&lt;br&gt;- alumnos: List&amp;lt;Estudiante&amp;gt;&lt;br&gt;- codigo: String&lt;/p&gt;&lt;hr size=&quot;1&quot;&gt;&lt;p style=&quot;margin:0 0 0 4px;line-height:1.6;&quot;&gt;+ Curso(String, List&amp;lt;Estudiante&amp;gt;, String):&lt;/p&gt;&lt;p style=&quot;margin:0 0 0 4px;line-height:1.6;&quot;&gt;+ getAlumnos(): List&amp;lt;Estudiante&amp;gt;&lt;br&gt;+ setCodigo(String): void&lt;br&gt;+ toString(): String&lt;br&gt;+ setAlumnos(List&amp;lt;Estudiante&amp;gt;): void&lt;br&gt;+ getNombre(): String&lt;br&gt;+ setNombre(String): void&lt;br&gt;+ getCodigo(): String&lt;/p&gt;&lt;p style=&quot;margin:0 0 0 4px;line-height:1.6;&quot;&gt;+ toString(): String&lt;/p&gt;" style="verticalAlign=top;align=left;overflow=fill;fontSize=14;fontFamily=Helvetica;html=1;rounded=0;shadow=0;comic=0;labelBackgroundColor=none;strokeWidth=1;" parent="1" vertex="1">
          <mxGeometry x="427.5" y="790" width="299" height="320" as="geometry" />
        </mxCell>
        <mxCell id="node2" value="&lt;p style=&quot;margin:0px;margin-top:4px;text-align:center;&quot;&gt;&lt;b&gt;Estudiante&lt;/b&gt;&lt;/p&gt;&lt;hr size=&quot;1&quot;&gt;&lt;p style=&quot;margin:0 0 0 4px;line-height:1.6;&quot;&gt;+ Estudiante(): &lt;br&gt;+ Estudiante(String, List&amp;lt;Calificacion&amp;gt;, String, String): &lt;/p&gt;&lt;hr size=&quot;1&quot;&gt;&lt;p style=&quot;margin:0 0 0 4px;line-height:1.6;&quot;&gt;- apellido: String&lt;br&gt;- calificaciones: List&amp;lt;Calificacion&amp;gt;&lt;br&gt;- nombre: String&lt;br&gt;- celdula: String&lt;/p&gt;&lt;hr size=&quot;1&quot;&gt;&lt;p style=&quot;margin:0 0 0 4px;line-height:1.6;&quot;&gt;+ Estudiante():&lt;br&gt;+ Estudiante(String, List&amp;lt;Calificacion&amp;gt;, String, String):&lt;/p&gt;&lt;p style=&quot;margin:0 0 0 4px;line-height:1.6;&quot;&gt;+ getCalificaciones(): List&amp;lt;Calificacion&amp;gt;&lt;br&gt;+ getApellido(): String&lt;br&gt;+ getNombre(): String&lt;br&gt;+ setNombre(String): void&lt;br&gt;+ setApellido(String): void&lt;br&gt;+ toString(): String&lt;br&gt;+ setCalificaciones(List&amp;lt;Calificacion&amp;gt;): void&lt;br&gt;+ setCeldula(String): void&lt;br&gt;+ getCeldula(): String&lt;/p&gt;&lt;p style=&quot;margin:0 0 0 4px;line-height:1.6;&quot;&gt;+ toString() : String&lt;/p&gt;" style="verticalAlign=top;align=left;overflow=fill;fontSize=14;fontFamily=Helvetica;html=1;rounded=0;shadow=0;comic=0;labelBackgroundColor=none;strokeWidth=1;" parent="1" vertex="1">
          <mxGeometry x="970" y="310" width="380" height="474" as="geometry" />
        </mxCell>
        <mxCell id="7tW9N5ECftSV_LTL-sD9-2" value="" style="endArrow=diamondThin;endFill=0;endSize=24;html=1;rounded=0;exitX=-0.008;exitY=0.876;exitDx=0;exitDy=0;exitPerimeter=0;entryX=0.5;entryY=0;entryDx=0;entryDy=0;" edge="1" parent="1" source="node2" target="node0">
          <mxGeometry width="160" relative="1" as="geometry">
            <mxPoint x="520" y="440" as="sourcePoint" />
            <mxPoint x="680" y="440" as="targetPoint" />
            <Array as="points">
              <mxPoint x="577" y="725" />
            </Array>
          </mxGeometry>
        </mxCell>
        <mxCell id="7tW9N5ECftSV_LTL-sD9-3" value="1" style="text;html=1;align=center;verticalAlign=middle;resizable=0;points=[];autosize=1;strokeColor=none;fillColor=none;" vertex="1" parent="1">
          <mxGeometry x="575" y="758" width="30" height="30" as="geometry" />
        </mxCell>
        <mxCell id="7tW9N5ECftSV_LTL-sD9-4" value="0..*" style="text;html=1;align=center;verticalAlign=middle;resizable=0;points=[];autosize=1;strokeColor=none;fillColor=none;" vertex="1" parent="1">
          <mxGeometry x="930" y="698" width="40" height="30" as="geometry" />
        </mxCell>
      </root>
    </mxGraphModel>
  </diagram>
</mxfile>
